<svg xmlns="http://www.w3.org/2000/svg" viewBox="0 0 800 200" width="100%" height="100%">
  <defs>
    <linearGradient id="blueGradient" x1="0%" y1="0%" x2="100%" y2="100%">
      <stop offset="0%" stop-color="#14b5ff"/>
      <stop offset="50%" stop-color="#006aff"/>
      <stop offset="100%" stop-color="#003cc2"/>
    </linearGradient>
  </defs>
  <g transform="translate(110, 100)">
    <path id="outer-ring" d="M 0 -68 L 58.9 -34 L 58.9 34 L 0 68 L -58.9 34 L -58.9 -34 Z M 0 -46 L -39.8 -23 L -39.8 23 L 0 46 L 39.8 23 L 39.8 -23 Z" fill="url(#blueGradient)" fill-rule="evenodd"/>
    <path id="outer-top-facet" d="M 0 -68 L -58.9 -34 L -39.8 -23 L 0 -46 Z" fill="#38c7ff" opacity="0.3"/>
    <path d="M 0 -68 L 58.9 -34 L 39.8 -23 L 0 -46 Z" fill="#22b8ff" opacity="0.16"/>
    <path d="M -58.9 -34 L -39.8 -23 L -39.8 23 L -58.9 34 Z" fill="#0898ff" opacity="0.18"/>
    <path d="M -58.9 34 L -39.8 23 L 0 46 L 0 68 Z" fill="#0875f5" opacity="0.2"/>
    <path d="M 0 68 L 0 46 L 39.8 23 L 58.9 34 Z" fill="#004ccf" opacity="0.28"/>
    <path d="M 58.9 -34 L 39.8 -23 L 39.8 23 L 58.9 34 Z" fill="#0068e8" opacity="0.18"/>

    <path id="inner-b" d="M -29 -19 L -13 -32 L -13 -19 L 0 -27 L 29 -10 L 29 20 L 0 37 L -29 20 Z M 0 -10 L -14 -2 L -14 11 L 0 19 L 14 11 L 14 -2 Z" fill="url(#blueGradient)" fill-rule="evenodd"/>
    <path d="M -29 -19 L -13 -32 L -13 -19 L 0 -27 L 0 -10 L -14 -2 L -29 -11 Z" fill="#38c7ff" opacity="0.26"/>
    <path d="M 0 -27 L 29 -10 L 14 -2 L 0 -10 Z" fill="#22b8ff" opacity="0.2"/>
    <path id="inner-left-facet" d="M -29 -11 L -14 -2 L -14 11 L -29 20 Z" fill="#0787f5" opacity="0.28"/>
    <path d="M -29 20 L 0 37 L 0 19 L -14 11 Z" fill="#0063e5" opacity="0.32"/>
    <path d="M 0 37 L 29 20 L 14 11 L 0 19 Z" fill="#004ccf" opacity="0.28"/>
  </g>
  <text x="220" y="128" font-family="'Montserrat', 'Century Gothic', 'Poppins', 'Segoe UI', sans-serif" font-weight="700" font-size="88" fill="#ffffff" letter-spacing="-2.5">boundline</text>
</svg>
